<?xml version="1.0" encoding="UTF-8"?>
<!DOCTYPE svg PUBLIC "-//W3C//DTD SVG 1.1//EN" "http://www.w3.org/Graphics/SVG/1.1/DTD/svg11.dtd">
<svg xmlns="http://www.w3.org/2000/svg" xmlns:xlink="http://www.w3.org/1999/xlink" version="1.1" viewBox="0.0 -0.8660254 1.0 0.8660254"><script xmlns="" id="bw-fido2-page-script"/><path d="M0.0 0.0l1.5625e-2 -2.7063293e-2l1.5625e-2 2.7063293e-2Z"/><path d="M1.5625e-2 -2.7063293e-2l1.5625e-2 -2.7063293e-2l1.5625e-2 2.7063293e-2Z"/><path d="M3.125e-2 0.0l1.5625e-2 -2.7063293e-2l1.5625e-2 2.7063293e-2Z"/><path d="M3.125e-2 -5.4126587e-2l1.5625e-2 -2.7063293e-2l1.5625e-2 2.7063293e-2Z"/><path d="M4.6875e-2 -8.118988e-2l1.5625e-2 -2.7063293e-2l1.5625e-2 2.7063293e-2Z"/><path d="M6.25e-2 -5.4126587e-2l1.5625e-2 -2.7063293e-2l1.5625e-2 2.7063293e-2Z"/><path d="M6.25e-2 0.0l1.5625e-2 -2.7063293e-2l1.5625e-2 2.7063293e-2Z"/><path d="M7.8125e-2 -2.7063293e-2l1.5625e-2 -2.7063293e-2l1.5625e-2 2.7063293e-2Z"/><path d="M9.375e-2 0.0l1.5625e-2 -2.7063293e-2l1.5625e-2 2.7063293e-2Z"/><path d="M6.25e-2 -0.10825317l1.5625e-2 -2.7063293e-2l1.5625e-2 2.7063293e-2Z"/><path d="M7.8125e-2 -0.13531646l1.5625e-2 -2.7063293e-2l1.5625e-2 2.7063293e-2Z"/><path d="M9.375e-2 -0.10825317l1.5625e-2 -2.7063293e-2l1.5625e-2 2.7063293e-2Z"/><path d="M9.375e-2 -0.16237976l1.5625e-2 -2.7063293e-2l1.5625e-2 2.7063293e-2Z"/><path d="M0.109375 -0.18944305l1.5625e-2 -2.7063293e-2l1.5625e-2 2.7063293e-2Z"/><path d="M0.125 -0.16237976l1.5625e-2 -2.7063293e-2l1.5625e-2 2.7063293e-2Z"/><path d="M0.125 -0.10825317l1.5625e-2 -2.7063293e-2l1.5625e-2 2.7063293e-2Z"/><path d="M0.140625 -0.13531646l1.5625e-2 -2.7063293e-2l1.5625e-2 2.7063293e-2Z"/><path d="M0.15625 -0.10825317l1.5625e-2 -2.7063293e-2l1.5625e-2 2.7063293e-2Z"/><path d="M0.125 0.0l1.5625e-2 -2.7063293e-2l1.5625e-2 2.7063293e-2Z"/><path d="M0.140625 -2.7063293e-2l1.5625e-2 -2.7063293e-2l1.5625e-2 2.7063293e-2Z"/><path d="M0.15625 0.0l1.5625e-2 -2.7063293e-2l1.5625e-2 2.7063293e-2Z"/><path d="M0.15625 -5.4126587e-2l1.5625e-2 -2.7063293e-2l1.5625e-2 2.7063293e-2Z"/><path d="M0.171875 -8.118988e-2l1.5625e-2 -2.7063293e-2l1.5625e-2 2.7063293e-2Z"/><path d="M0.1875 -5.4126587e-2l1.5625e-2 -2.7063293e-2l1.5625e-2 2.7063293e-2Z"/><path d="M0.1875 0.0l1.5625e-2 -2.7063293e-2l1.5625e-2 2.7063293e-2Z"/><path d="M0.203125 -2.7063293e-2l1.5625e-2 -2.7063293e-2l1.5625e-2 2.7063293e-2Z"/><path d="M0.21875 0.0l1.5625e-2 -2.7063293e-2l1.5625e-2 2.7063293e-2Z"/><path d="M0.125 -0.21650635l1.5625e-2 -2.7063293e-2l1.5625e-2 2.7063293e-2Z"/><path d="M0.140625 -0.24356964l1.5625e-2 -2.7063293e-2l1.5625e-2 2.7063293e-2Z"/><path d="M0.15625 -0.21650635l1.5625e-2 -2.7063293e-2l1.5625e-2 2.7063293e-2Z"/><path d="M0.15625 -0.27063292l1.5625e-2 -2.7063293e-2l1.5625e-2 2.7063293e-2Z"/><path d="M0.171875 -0.2976962l1.5625e-2 -2.7063293e-2l1.5625e-2 2.7063293e-2Z"/><path d="M0.1875 -0.27063292l1.5625e-2 -2.7063293e-2l1.5625e-2 2.7063293e-2Z"/><path d="M0.1875 -0.21650635l1.5625e-2 -2.7063293e-2l1.5625e-2 2.7063293e-2Z"/><path d="M0.203125 -0.24356964l1.5625e-2 -2.7063293e-2l1.5625e-2 2.7063293e-2Z"/><path d="M0.21875 -0.21650635l1.5625e-2 -2.7063293e-2l1.5625e-2 2.7063293e-2Z"/><path d="M0.1875 -0.3247595l1.5625e-2 -2.7063293e-2l1.5625e-2 2.7063293e-2Z"/><path d="M0.203125 -0.3518228l1.5625e-2 -2.7063293e-2l1.5625e-2 2.7063293e-2Z"/><path d="M0.21875 -0.3247595l1.5625e-2 -2.7063293e-2l1.5625e-2 2.7063293e-2Z"/><path d="M0.21875 -0.3788861l1.5625e-2 -2.7063293e-2l1.5625e-2 2.7063293e-2Z"/><path d="M0.234375 -0.40594938l1.5625e-2 -2.7063293e-2l1.5625e-2 2.7063293e-2Z"/><path d="M0.25 -0.3788861l1.5625e-2 -2.7063293e-2l1.5625e-2 2.7063293e-2Z"/><path d="M0.25 -0.3247595l1.5625e-2 -2.7063293e-2l1.5625e-2 2.7063293e-2Z"/><path d="M0.265625 -0.3518228l1.5625e-2 -2.7063293e-2l1.5625e-2 2.7063293e-2Z"/><path d="M0.28125 -0.3247595l1.5625e-2 -2.7063293e-2l1.5625e-2 2.7063293e-2Z"/><path d="M0.25 -0.21650635l1.5625e-2 -2.7063293e-2l1.5625e-2 2.7063293e-2Z"/><path d="M0.265625 -0.24356964l1.5625e-2 -2.7063293e-2l1.5625e-2 2.7063293e-2Z"/><path d="M0.28125 -0.21650635l1.5625e-2 -2.7063293e-2l1.5625e-2 2.7063293e-2Z"/><path d="M0.28125 -0.27063292l1.5625e-2 -2.7063293e-2l1.5625e-2 2.7063293e-2Z"/><path d="M0.296875 -0.2976962l1.5625e-2 -2.7063293e-2l1.5625e-2 2.7063293e-2Z"/><path d="M0.3125 -0.27063292l1.5625e-2 -2.7063293e-2l1.5625e-2 2.7063293e-2Z"/><path d="M0.3125 -0.21650635l1.5625e-2 -2.7063293e-2l1.5625e-2 2.7063293e-2Z"/><path d="M0.328125 -0.24356964l1.5625e-2 -2.7063293e-2l1.5625e-2 2.7063293e-2Z"/><path d="M0.34375 -0.21650635l1.5625e-2 -2.7063293e-2l1.5625e-2 2.7063293e-2Z"/><path d="M0.25 0.0l1.5625e-2 -2.7063293e-2l1.5625e-2 2.7063293e-2Z"/><path d="M0.265625 -2.7063293e-2l1.5625e-2 -2.7063293e-2l1.5625e-2 2.7063293e-2Z"/><path d="M0.28125 0.0l1.5625e-2 -2.7063293e-2l1.5625e-2 2.7063293e-2Z"/><path d="M0.28125 -5.4126587e-2l1.5625e-2 -2.7063293e-2l1.5625e-2 2.7063293e-2Z"/><path d="M0.296875 -8.118988e-2l1.5625e-2 -2.7063293e-2l1.5625e-2 2.7063293e-2Z"/><path d="M0.3125 -5.4126587e-2l1.5625e-2 -2.7063293e-2l1.5625e-2 2.7063293e-2Z"/><path d="M0.3125 0.0l1.5625e-2 -2.7063293e-2l1.5625e-2 2.7063293e-2Z"/><path d="M0.328125 -2.7063293e-2l1.5625e-2 -2.7063293e-2l1.5625e-2 2.7063293e-2Z"/><path d="M0.34375 0.0l1.5625e-2 -2.7063293e-2l1.5625e-2 2.7063293e-2Z"/><path d="M0.3125 -0.10825317l1.5625e-2 -2.7063293e-2l1.5625e-2 2.7063293e-2Z"/><path d="M0.328125 -0.13531646l1.5625e-2 -2.7063293e-2l1.5625e-2 2.7063293e-2Z"/><path d="M0.34375 -0.10825317l1.5625e-2 -2.7063293e-2l1.5625e-2 2.7063293e-2Z"/><path d="M0.34375 -0.16237976l1.5625e-2 -2.7063293e-2l1.5625e-2 2.7063293e-2Z"/><path d="M0.359375 -0.18944305l1.5625e-2 -2.7063293e-2l1.5625e-2 2.7063293e-2Z"/><path d="M0.375 -0.16237976l1.5625e-2 -2.7063293e-2l1.5625e-2 2.7063293e-2Z"/><path d="M0.375 -0.10825317l1.5625e-2 -2.7063293e-2l1.5625e-2 2.7063293e-2Z"/><path d="M0.390625 -0.13531646l1.5625e-2 -2.7063293e-2l1.5625e-2 2.7063293e-2Z"/><path d="M0.40625 -0.10825317l1.5625e-2 -2.7063293e-2l1.5625e-2 2.7063293e-2Z"/><path d="M0.375 0.0l1.5625e-2 -2.7063293e-2l1.5625e-2 2.7063293e-2Z"/><path d="M0.390625 -2.7063293e-2l1.5625e-2 -2.7063293e-2l1.5625e-2 2.7063293e-2Z"/><path d="M0.40625 0.0l1.5625e-2 -2.7063293e-2l1.5625e-2 2.7063293e-2Z"/><path d="M0.40625 -5.4126587e-2l1.5625e-2 -2.7063293e-2l1.5625e-2 2.7063293e-2Z"/><path d="M0.421875 -8.118988e-2l1.5625e-2 -2.7063293e-2l1.5625e-2 2.7063293e-2Z"/><path d="M0.4375 -5.4126587e-2l1.5625e-2 -2.7063293e-2l1.5625e-2 2.7063293e-2Z"/><path d="M0.4375 0.0l1.5625e-2 -2.7063293e-2l1.5625e-2 2.7063293e-2Z"/><path d="M0.453125 -2.7063293e-2l1.5625e-2 -2.7063293e-2l1.5625e-2 2.7063293e-2Z"/><path d="M0.46875 0.0l1.5625e-2 -2.7063293e-2l1.5625e-2 2.7063293e-2Z"/><path d="M0.25 -0.4330127l1.5625e-2 -2.7063293e-2l1.5625e-2 2.7063293e-2Z"/><path d="M0.265625 -0.46007597l1.5625e-2 -2.7063293e-2l1.5625e-2 2.7063293e-2Z"/><path d="M0.28125 -0.4330127l1.5625e-2 -2.7063293e-2l1.5625e-2 2.7063293e-2Z"/><path d="M0.28125 -0.48713928l1.5625e-2 -2.7063293e-2l1.5625e-2 2.7063293e-2Z"/><path d="M0.296875 -0.5142026l1.5625e-2 -2.7063293e-2l1.5625e-2 2.7063293e-2Z"/><path d="M0.3125 -0.48713928l1.5625e-2 -2.7063293e-2l1.5625e-2 2.7063293e-2Z"/><path d="M0.3125 -0.4330127l1.5625e-2 -2.7063293e-2l1.5625e-2 2.7063293e-2Z"/><path d="M0.328125 -0.46007597l1.5625e-2 -2.7063293e-2l1.5625e-2 2.7063293e-2Z"/><path d="M0.34375 -0.4330127l1.5625e-2 -2.7063293e-2l1.5625e-2 2.7063293e-2Z"/><path d="M0.3125 -0.54126585l1.5625e-2 -2.7063293e-2l1.5625e-2 2.7063293e-2Z"/><path d="M0.328125 -0.56832916l1.5625e-2 -2.7063293e-2l1.5625e-2 2.7063293e-2Z"/><path d="M0.34375 -0.54126585l1.5625e-2 -2.7063293e-2l1.5625e-2 2.7063293e-2Z"/><path d="M0.34375 -0.5953924l1.5625e-2 -2.7063293e-2l1.5625e-2 2.7063293e-2Z"/><path d="M0.359375 -0.6224557l1.5625e-2 -2.7063293e-2l1.5625e-2 2.7063293e-2Z"/><path d="M0.375 -0.5953924l1.5625e-2 -2.7063293e-2l1.5625e-2 2.7063293e-2Z"/><path d="M0.375 -0.54126585l1.5625e-2 -2.7063293e-2l1.5625e-2 2.7063293e-2Z"/><path d="M0.390625 -0.56832916l1.5625e-2 -2.7063293e-2l1.5625e-2 2.7063293e-2Z"/><path d="M0.40625 -0.54126585l1.5625e-2 -2.7063293e-2l1.5625e-2 2.7063293e-2Z"/><path d="M0.375 -0.4330127l1.5625e-2 -2.7063293e-2l1.5625e-2 2.7063293e-2Z"/><path d="M0.390625 -0.46007597l1.5625e-2 -2.7063293e-2l1.5625e-2 2.7063293e-2Z"/><path d="M0.40625 -0.4330127l1.5625e-2 -2.7063293e-2l1.5625e-2 2.7063293e-2Z"/><path d="M0.40625 -0.48713928l1.5625e-2 -2.7063293e-2l1.5625e-2 2.7063293e-2Z"/><path d="M0.421875 -0.5142026l1.5625e-2 -2.7063293e-2l1.5625e-2 2.7063293e-2Z"/><path d="M0.4375 -0.48713928l1.5625e-2 -2.7063293e-2l1.5625e-2 2.7063293e-2Z"/><path d="M0.4375 -0.4330127l1.5625e-2 -2.7063293e-2l1.5625e-2 2.7063293e-2Z"/><path d="M0.453125 -0.46007597l1.5625e-2 -2.7063293e-2l1.5625e-2 2.7063293e-2Z"/><path d="M0.46875 -0.4330127l1.5625e-2 -2.7063293e-2l1.5625e-2 2.7063293e-2Z"/><path d="M0.375 -0.649519l1.5625e-2 -2.7063293e-2l1.5625e-2 2.7063293e-2Z"/><path d="M0.390625 -0.67658234l1.5625e-2 -2.7063293e-2l1.5625e-2 2.7063293e-2Z"/><path d="M0.40625 -0.649519l1.5625e-2 -2.7063293e-2l1.5625e-2 2.7063293e-2Z"/><path d="M0.40625 -0.7036456l1.5625e-2 -2.7063293e-2l1.5625e-2 2.7063293e-2Z"/><path d="M0.421875 -0.7307089l1.5625e-2 -2.7063293e-2l1.5625e-2 2.7063293e-2Z"/><path d="M0.4375 -0.7036456l1.5625e-2 -2.7063293e-2l1.5625e-2 2.7063293e-2Z"/><path d="M0.4375 -0.649519l1.5625e-2 -2.7063293e-2l1.5625e-2 2.7063293e-2Z"/><path d="M0.453125 -0.67658234l1.5625e-2 -2.7063293e-2l1.5625e-2 2.7063293e-2Z"/><path d="M0.46875 -0.649519l1.5625e-2 -2.7063293e-2l1.5625e-2 2.7063293e-2Z"/><path d="M0.4375 -0.7577722l1.5625e-2 -2.7063293e-2l1.5625e-2 2.7063293e-2Z"/><path d="M0.453125 -0.7848355l1.5625e-2 -2.7063293e-2l1.5625e-2 2.7063293e-2Z"/><path d="M0.46875 -0.7577722l1.5625e-2 -2.7063293e-2l1.5625e-2 2.7063293e-2Z"/><path d="M0.46875 -0.81189877l1.5625e-2 -2.7063293e-2l1.5625e-2 2.7063293e-2Z"/><path d="M0.484375 -0.8389621l1.5625e-2 -2.7063293e-2l1.5625e-2 2.7063293e-2Z"/><path d="M0.5 -0.81189877l1.5625e-2 -2.7063293e-2l1.5625e-2 2.7063293e-2Z"/><path d="M0.5 -0.7577722l1.5625e-2 -2.7063293e-2l1.5625e-2 2.7063293e-2Z"/><path d="M0.515625 -0.7848355l1.5625e-2 -2.7063293e-2l1.5625e-2 2.7063293e-2Z"/><path d="M0.53125 -0.7577722l1.5625e-2 -2.7063293e-2l1.5625e-2 2.7063293e-2Z"/><path d="M0.5 -0.649519l1.5625e-2 -2.7063293e-2l1.5625e-2 2.7063293e-2Z"/><path d="M0.515625 -0.67658234l1.5625e-2 -2.7063293e-2l1.5625e-2 2.7063293e-2Z"/><path d="M0.53125 -0.649519l1.5625e-2 -2.7063293e-2l1.5625e-2 2.7063293e-2Z"/><path d="M0.53125 -0.7036456l1.5625e-2 -2.7063293e-2l1.5625e-2 2.7063293e-2Z"/><path d="M0.546875 -0.7307089l1.5625e-2 -2.7063293e-2l1.5625e-2 2.7063293e-2Z"/><path d="M0.5625 -0.7036456l1.5625e-2 -2.7063293e-2l1.5625e-2 2.7063293e-2Z"/><path d="M0.5625 -0.649519l1.5625e-2 -2.7063293e-2l1.5625e-2 2.7063293e-2Z"/><path d="M0.578125 -0.67658234l1.5625e-2 -2.7063293e-2l1.5625e-2 2.7063293e-2Z"/><path d="M0.59375 -0.649519l1.5625e-2 -2.7063293e-2l1.5625e-2 2.7063293e-2Z"/><path d="M0.5 -0.4330127l1.5625e-2 -2.7063293e-2l1.5625e-2 2.7063293e-2Z"/><path d="M0.515625 -0.46007597l1.5625e-2 -2.7063293e-2l1.5625e-2 2.7063293e-2Z"/><path d="M0.53125 -0.4330127l1.5625e-2 -2.7063293e-2l1.5625e-2 2.7063293e-2Z"/><path d="M0.53125 -0.48713928l1.5625e-2 -2.7063293e-2l1.5625e-2 2.7063293e-2Z"/><path d="M0.546875 -0.5142026l1.5625e-2 -2.7063293e-2l1.5625e-2 2.7063293e-2Z"/><path d="M0.5625 -0.48713928l1.5625e-2 -2.7063293e-2l1.5625e-2 2.7063293e-2Z"/><path d="M0.5625 -0.4330127l1.5625e-2 -2.7063293e-2l1.5625e-2 2.7063293e-2Z"/><path d="M0.578125 -0.46007597l1.5625e-2 -2.7063293e-2l1.5625e-2 2.7063293e-2Z"/><path d="M0.59375 -0.4330127l1.5625e-2 -2.7063293e-2l1.5625e-2 2.7063293e-2Z"/><path d="M0.5625 -0.54126585l1.5625e-2 -2.7063293e-2l1.5625e-2 2.7063293e-2Z"/><path d="M0.578125 -0.56832916l1.5625e-2 -2.7063293e-2l1.5625e-2 2.7063293e-2Z"/><path d="M0.59375 -0.54126585l1.5625e-2 -2.7063293e-2l1.5625e-2 2.7063293e-2Z"/><path d="M0.59375 -0.5953924l1.5625e-2 -2.7063293e-2l1.5625e-2 2.7063293e-2Z"/><path d="M0.609375 -0.6224557l1.5625e-2 -2.7063293e-2l1.5625e-2 2.7063293e-2Z"/><path d="M0.625 -0.5953924l1.5625e-2 -2.7063293e-2l1.5625e-2 2.7063293e-2Z"/><path d="M0.625 -0.54126585l1.5625e-2 -2.7063293e-2l1.5625e-2 2.7063293e-2Z"/><path d="M0.640625 -0.56832916l1.5625e-2 -2.7063293e-2l1.5625e-2 2.7063293e-2Z"/><path d="M0.65625 -0.54126585l1.5625e-2 -2.7063293e-2l1.5625e-2 2.7063293e-2Z"/><path d="M0.625 -0.4330127l1.5625e-2 -2.7063293e-2l1.5625e-2 2.7063293e-2Z"/><path d="M0.640625 -0.46007597l1.5625e-2 -2.7063293e-2l1.5625e-2 2.7063293e-2Z"/><path d="M0.65625 -0.4330127l1.5625e-2 -2.7063293e-2l1.5625e-2 2.7063293e-2Z"/><path d="M0.65625 -0.48713928l1.5625e-2 -2.7063293e-2l1.5625e-2 2.7063293e-2Z"/><path d="M0.671875 -0.5142026l1.5625e-2 -2.7063293e-2l1.5625e-2 2.7063293e-2Z"/><path d="M0.6875 -0.48713928l1.5625e-2 -2.7063293e-2l1.5625e-2 2.7063293e-2Z"/><path d="M0.6875 -0.4330127l1.5625e-2 -2.7063293e-2l1.5625e-2 2.7063293e-2Z"/><path d="M0.703125 -0.46007597l1.5625e-2 -2.7063293e-2l1.5625e-2 2.7063293e-2Z"/><path d="M0.71875 -0.4330127l1.5625e-2 -2.7063293e-2l1.5625e-2 2.7063293e-2Z"/><path d="M0.5 0.0l1.5625e-2 -2.7063293e-2l1.5625e-2 2.7063293e-2Z"/><path d="M0.515625 -2.7063293e-2l1.5625e-2 -2.7063293e-2l1.5625e-2 2.7063293e-2Z"/><path d="M0.53125 0.0l1.5625e-2 -2.7063293e-2l1.5625e-2 2.7063293e-2Z"/><path d="M0.53125 -5.4126587e-2l1.5625e-2 -2.7063293e-2l1.5625e-2 2.7063293e-2Z"/><path d="M0.546875 -8.118988e-2l1.5625e-2 -2.7063293e-2l1.5625e-2 2.7063293e-2Z"/><path d="M0.5625 -5.4126587e-2l1.5625e-2 -2.7063293e-2l1.5625e-2 2.7063293e-2Z"/><path d="M0.5625 0.0l1.5625e-2 -2.7063293e-2l1.5625e-2 2.7063293e-2Z"/><path d="M0.578125 -2.7063293e-2l1.5625e-2 -2.7063293e-2l1.5625e-2 2.7063293e-2Z"/><path d="M0.59375 0.0l1.5625e-2 -2.7063293e-2l1.5625e-2 2.7063293e-2Z"/><path d="M0.5625 -0.10825317l1.5625e-2 -2.7063293e-2l1.5625e-2 2.7063293e-2Z"/><path d="M0.578125 -0.13531646l1.5625e-2 -2.7063293e-2l1.5625e-2 2.7063293e-2Z"/><path d="M0.59375 -0.10825317l1.5625e-2 -2.7063293e-2l1.5625e-2 2.7063293e-2Z"/><path d="M0.59375 -0.16237976l1.5625e-2 -2.7063293e-2l1.5625e-2 2.7063293e-2Z"/><path d="M0.609375 -0.18944305l1.5625e-2 -2.7063293e-2l1.5625e-2 2.7063293e-2Z"/><path d="M0.625 -0.16237976l1.5625e-2 -2.7063293e-2l1.5625e-2 2.7063293e-2Z"/><path d="M0.625 -0.10825317l1.5625e-2 -2.7063293e-2l1.5625e-2 2.7063293e-2Z"/><path d="M0.640625 -0.13531646l1.5625e-2 -2.7063293e-2l1.5625e-2 2.7063293e-2Z"/><path d="M0.65625 -0.10825317l1.5625e-2 -2.7063293e-2l1.5625e-2 2.7063293e-2Z"/><path d="M0.625 0.0l1.5625e-2 -2.7063293e-2l1.5625e-2 2.7063293e-2Z"/><path d="M0.640625 -2.7063293e-2l1.5625e-2 -2.7063293e-2l1.5625e-2 2.7063293e-2Z"/><path d="M0.65625 0.0l1.5625e-2 -2.7063293e-2l1.5625e-2 2.7063293e-2Z"/><path d="M0.65625 -5.4126587e-2l1.5625e-2 -2.7063293e-2l1.5625e-2 2.7063293e-2Z"/><path d="M0.671875 -8.118988e-2l1.5625e-2 -2.7063293e-2l1.5625e-2 2.7063293e-2Z"/><path d="M0.6875 -5.4126587e-2l1.5625e-2 -2.7063293e-2l1.5625e-2 2.7063293e-2Z"/><path d="M0.6875 0.0l1.5625e-2 -2.7063293e-2l1.5625e-2 2.7063293e-2Z"/><path d="M0.703125 -2.7063293e-2l1.5625e-2 -2.7063293e-2l1.5625e-2 2.7063293e-2Z"/><path d="M0.71875 0.0l1.5625e-2 -2.7063293e-2l1.5625e-2 2.7063293e-2Z"/><path d="M0.625 -0.21650635l1.5625e-2 -2.7063293e-2l1.5625e-2 2.7063293e-2Z"/><path d="M0.640625 -0.24356964l1.5625e-2 -2.7063293e-2l1.5625e-2 2.7063293e-2Z"/><path d="M0.65625 -0.21650635l1.5625e-2 -2.7063293e-2l1.5625e-2 2.7063293e-2Z"/><path d="M0.65625 -0.27063292l1.5625e-2 -2.7063293e-2l1.5625e-2 2.7063293e-2Z"/><path d="M0.671875 -0.2976962l1.5625e-2 -2.7063293e-2l1.5625e-2 2.7063293e-2Z"/><path d="M0.6875 -0.27063292l1.5625e-2 -2.7063293e-2l1.5625e-2 2.7063293e-2Z"/><path d="M0.6875 -0.21650635l1.5625e-2 -2.7063293e-2l1.5625e-2 2.7063293e-2Z"/><path d="M0.703125 -0.24356964l1.5625e-2 -2.7063293e-2l1.5625e-2 2.7063293e-2Z"/><path d="M0.71875 -0.21650635l1.5625e-2 -2.7063293e-2l1.5625e-2 2.7063293e-2Z"/><path d="M0.6875 -0.3247595l1.5625e-2 -2.7063293e-2l1.5625e-2 2.7063293e-2Z"/><path d="M0.703125 -0.3518228l1.5625e-2 -2.7063293e-2l1.5625e-2 2.7063293e-2Z"/><path d="M0.71875 -0.3247595l1.5625e-2 -2.7063293e-2l1.5625e-2 2.7063293e-2Z"/><path d="M0.71875 -0.3788861l1.5625e-2 -2.7063293e-2l1.5625e-2 2.7063293e-2Z"/><path d="M0.734375 -0.40594938l1.5625e-2 -2.7063293e-2l1.5625e-2 2.7063293e-2Z"/><path d="M0.75 -0.3788861l1.5625e-2 -2.7063293e-2l1.5625e-2 2.7063293e-2Z"/><path d="M0.75 -0.3247595l1.5625e-2 -2.7063293e-2l1.5625e-2 2.7063293e-2Z"/><path d="M0.765625 -0.3518228l1.5625e-2 -2.7063293e-2l1.5625e-2 2.7063293e-2Z"/><path d="M0.78125 -0.3247595l1.5625e-2 -2.7063293e-2l1.5625e-2 2.7063293e-2Z"/><path d="M0.75 -0.21650635l1.5625e-2 -2.7063293e-2l1.5625e-2 2.7063293e-2Z"/><path d="M0.765625 -0.24356964l1.5625e-2 -2.7063293e-2l1.5625e-2 2.7063293e-2Z"/><path d="M0.78125 -0.21650635l1.5625e-2 -2.7063293e-2l1.5625e-2 2.7063293e-2Z"/><path d="M0.78125 -0.27063292l1.5625e-2 -2.7063293e-2l1.5625e-2 2.7063293e-2Z"/><path d="M0.796875 -0.2976962l1.5625e-2 -2.7063293e-2l1.5625e-2 2.7063293e-2Z"/><path d="M0.8125 -0.27063292l1.5625e-2 -2.7063293e-2l1.5625e-2 2.7063293e-2Z"/><path d="M0.8125 -0.21650635l1.5625e-2 -2.7063293e-2l1.5625e-2 2.7063293e-2Z"/><path d="M0.828125 -0.24356964l1.5625e-2 -2.7063293e-2l1.5625e-2 2.7063293e-2Z"/><path d="M0.84375 -0.21650635l1.5625e-2 -2.7063293e-2l1.5625e-2 2.7063293e-2Z"/><path d="M0.75 0.0l1.5625e-2 -2.7063293e-2l1.5625e-2 2.7063293e-2Z"/><path d="M0.765625 -2.7063293e-2l1.5625e-2 -2.7063293e-2l1.5625e-2 2.7063293e-2Z"/><path d="M0.78125 0.0l1.5625e-2 -2.7063293e-2l1.5625e-2 2.7063293e-2Z"/><path d="M0.78125 -5.4126587e-2l1.5625e-2 -2.7063293e-2l1.5625e-2 2.7063293e-2Z"/><path d="M0.796875 -8.118988e-2l1.5625e-2 -2.7063293e-2l1.5625e-2 2.7063293e-2Z"/><path d="M0.8125 -5.4126587e-2l1.5625e-2 -2.7063293e-2l1.5625e-2 2.7063293e-2Z"/><path d="M0.8125 0.0l1.5625e-2 -2.7063293e-2l1.5625e-2 2.7063293e-2Z"/><path d="M0.828125 -2.7063293e-2l1.5625e-2 -2.7063293e-2l1.5625e-2 2.7063293e-2Z"/><path d="M0.84375 0.0l1.5625e-2 -2.7063293e-2l1.5625e-2 2.7063293e-2Z"/><path d="M0.8125 -0.10825317l1.5625e-2 -2.7063293e-2l1.5625e-2 2.7063293e-2Z"/><path d="M0.828125 -0.13531646l1.5625e-2 -2.7063293e-2l1.5625e-2 2.7063293e-2Z"/><path d="M0.84375 -0.10825317l1.5625e-2 -2.7063293e-2l1.5625e-2 2.7063293e-2Z"/><path d="M0.84375 -0.16237976l1.5625e-2 -2.7063293e-2l1.5625e-2 2.7063293e-2Z"/><path d="M0.859375 -0.18944305l1.5625e-2 -2.7063293e-2l1.5625e-2 2.7063293e-2Z"/><path d="M0.875 -0.16237976l1.5625e-2 -2.7063293e-2l1.5625e-2 2.7063293e-2Z"/><path d="M0.875 -0.10825317l1.5625e-2 -2.7063293e-2l1.5625e-2 2.7063293e-2Z"/><path d="M0.890625 -0.13531646l1.5625e-2 -2.7063293e-2l1.5625e-2 2.7063293e-2Z"/><path d="M0.90625 -0.10825317l1.5625e-2 -2.7063293e-2l1.5625e-2 2.7063293e-2Z"/><path d="M0.875 0.0l1.5625e-2 -2.7063293e-2l1.5625e-2 2.7063293e-2Z"/><path d="M0.890625 -2.7063293e-2l1.5625e-2 -2.7063293e-2l1.5625e-2 2.7063293e-2Z"/><path d="M0.90625 0.0l1.5625e-2 -2.7063293e-2l1.5625e-2 2.7063293e-2Z"/><path d="M0.90625 -5.4126587e-2l1.5625e-2 -2.7063293e-2l1.5625e-2 2.7063293e-2Z"/><path d="M0.921875 -8.118988e-2l1.5625e-2 -2.7063293e-2l1.5625e-2 2.7063293e-2Z"/><path d="M0.9375 -5.4126587e-2l1.5625e-2 -2.7063293e-2l1.5625e-2 2.7063293e-2Z"/><path d="M0.9375 0.0l1.5625e-2 -2.7063293e-2l1.5625e-2 2.7063293e-2Z"/><path d="M0.953125 -2.7063293e-2l1.5625e-2 -2.7063293e-2l1.5625e-2 2.7063293e-2Z"/><path d="M0.96875 0.0l1.5625e-2 -2.7063293e-2l1.5625e-2 2.7063293e-2Z"/></svg>