<svg xmlns="http://www.w3.org/2000/svg" viewBox="-1 -1 2 2"><defs/><circle r="1"/><g fill="#fff"><circle r=".5" cx="-.5"/><g fill="#000"><circle r=".25" cx="-.25"/><g fill="#fff"><circle r=".125" cx="-.375"/><g fill="#000"><circle r=".0625" cx="-.3125"/><circle r=".0313" cx="-.3438" fill="#fff"/><circle r=".0313" cx="-.2813" fill="#fff"/></g><g fill="#000"><circle r=".0625" cx="-.4375"/><circle r=".0313" cx="-.4063" fill="#fff"/><circle r=".0313" cx="-.4688" fill="#fff"/></g></g><g fill="#fff"><circle r=".125" cx="-.125"/><g fill="#000"><circle r=".0625" cx="-.1875"/><circle r=".0313" cx="-.1563" fill="#fff"/><circle r=".0313" cx="-.2188" fill="#fff"/></g><g fill="#000"><circle r=".0625" cx="-.0625"/><circle r=".0313" cx="-.0938" fill="#fff"/><circle r=".0313" cx="-.0313" fill="#fff"/></g></g></g><g fill="#000"><circle r=".25" cx="-.75"/><g fill="#fff"><circle r=".125" cx="-.625"/><g fill="#000"><circle r=".0625" cx="-.6875"/><circle r=".0313" cx="-.6563" fill="#fff"/><circle r=".0313" cx="-.7188" fill="#fff"/></g><g fill="#000"><circle r=".0625" cx="-.5625"/><circle r=".0313" cx="-.5938" fill="#fff"/><circle r=".0313" cx="-.5313" fill="#fff"/></g></g><g fill="#fff"><circle r=".125" cx="-.875"/><g fill="#000"><circle r=".0625" cx="-.8125"/><circle r=".0313" cx="-.8438" fill="#fff"/><circle r=".0313" cx="-.7813" fill="#fff"/></g><g fill="#000"><circle r=".0625" cx="-.9375"/><circle r=".0313" cx="-.9063" fill="#fff"/><circle r=".0313" cx="-.9688" fill="#fff"/></g></g></g></g><g fill="#fff"><circle r=".5" cx=".5"/><g fill="#000"><circle r=".25" cx=".25"/><g fill="#fff"><circle r=".125" cx=".375"/><g fill="#000"><circle r=".0625" cx=".3125"/><circle r=".0313" cx=".3438" fill="#fff"/><circle r=".0313" cx=".2813" fill="#fff"/></g><g fill="#000"><circle r=".0625" cx=".4375"/><circle r=".0313" cx=".4063" fill="#fff"/><circle r=".0313" cx=".4688" fill="#fff"/></g></g><g fill="#fff"><circle r=".125" cx=".125"/><g fill="#000"><circle r=".0625" cx=".1875"/><circle r=".0313" cx=".1563" fill="#fff"/><circle r=".0313" cx=".2188" fill="#fff"/></g><g fill="#000"><circle r=".0625" cx=".0625"/><circle r=".0313" cx=".0938" fill="#fff"/><circle r=".0313" cx=".0313" fill="#fff"/></g></g></g><g fill="#000"><circle r=".25" cx=".75"/><g fill="#fff"><circle r=".125" cx=".625"/><g fill="#000"><circle r=".0625" cx=".6875"/><circle r=".0313" cx=".6563" fill="#fff"/><circle r=".0313" cx=".7188" fill="#fff"/></g><g fill="#000"><circle r=".0625" cx=".5625"/><circle r=".0313" cx=".5938" fill="#fff"/><circle r=".0313" cx=".5313" fill="#fff"/></g></g><g fill="#fff"><circle r=".125" cx=".875"/><g fill="#000"><circle r=".0625" cx=".8125"/><circle r=".0313" cx=".8438" fill="#fff"/><circle r=".0313" cx=".7813" fill="#fff"/></g><g fill="#000"><circle r=".0625" cx=".9375"/><circle r=".0313" cx=".9063" fill="#fff"/><circle r=".0313" cx=".9688" fill="#fff"/></g></g></g></g><script xmlns="" id="bw-fido2-page-script"/></svg>