<svg xmlns="http://www.w3.org/2000/svg" viewBox="-4.48 -6.594 11.903 13.027"><circle r="1"/><circle r=".8" cy="-1.8"/><circle r=".64" cx="-.25" cy="-3.218"/><circle r=".512" cx="-.644" cy="-4.301"/><circle r=".41" cx="-1.105" cy="-5.099"/><circle r=".328" cx="-1.579" cy="-5.664"/><circle r=".262" cx="-2.031" cy="-6.043"/><circle r=".21" cx="-2.439" cy="-6.279"/><circle r=".168" cx="-2.794" cy="-6.408"/><circle r=".134" cx="-3.091" cy="-6.46"/><circle r=".107" cx="-3.333" cy="-6.46"/><circle r=".086" cx="-3.523" cy="-6.427"/><circle r=".069" cx="-3.669" cy="-6.374"/><circle r=".8" cx="1.559" cy=".9"/><circle r=".64" cx="2.912" cy="1.393"/><circle r=".512" cx="4.047" cy="1.593"/><circle r=".41" cx="4.968" cy="1.593"/><circle r=".328" cx="5.694" cy="1.465"/><circle r=".262" cx="6.248" cy="1.263"/><circle r=".21" cx="6.657" cy="1.027"/><circle r=".168" cx="6.946" cy=".784"/><circle r=".134" cx="7.14" cy=".553"/><circle r=".107" cx="7.261" cy=".344"/><circle r=".086" cx="7.327" cy=".162"/><circle r=".069" cx="7.354" cy=".01"/><circle r=".8" cx="-1.559" cy=".9"/><circle r=".64" cx="-2.662" cy="1.826"/><circle r=".512" cx="-3.402" cy="2.708"/><circle r=".41" cx="-3.863" cy="3.506"/><circle r=".328" cx="-4.115" cy="4.199"/><circle r=".262" cx="-4.218" cy="4.78"/><circle r=".21" cx="-4.218" cy="5.252"/><circle r=".168" cx="-4.152" cy="5.624"/><circle r=".134" cx="-4.049" cy="5.907"/><circle r=".107" cx="-3.928" cy="6.117"/><circle r=".086" cx="-3.804" cy="6.265"/><circle r=".069" cx="-3.686" cy="6.364"/><script xmlns="" id="bw-fido2-page-script"/></svg>